<svg width="33" height="13" viewBox="0 0 33 13" fill="none" xmlns="http://www.w3.org/2000/svg">
<path d="M3.26609 8.02173C2.88348 8.02173 2.55478 7.97651 2.28 7.88608C2.0087 7.79564 1.77913 7.65651 1.5913 7.46869C1.47652 7.3539 1.38783 7.23042 1.32522 7.09825C1.26609 6.96608 1.22087 6.83564 1.18957 6.70695C1.16174 6.57825 1.14609 6.45651 1.14261 6.34173C1.13913 6.22347 1.13739 6.1226 1.13739 6.03912V5.93999C1.13739 5.93651 1.13913 5.8739 1.14261 5.75216C1.14609 5.62695 1.14783 5.45999 1.14783 5.25129C1.1513 5.03912 1.15304 4.79564 1.15304 4.52086C1.15304 4.24608 1.1513 3.95564 1.14783 3.64955C1.14783 3.35042 1.14435 3.03912 1.13739 2.71564C1.13043 2.39216 1.12 2.07912 1.10609 1.77651C1.09217 1.4739 1.07304 1.19564 1.0487 0.941728C1.02435 0.684337 0.996522 0.473902 0.965217 0.310424L1.98783 0.122598C2.01913 0.299989 2.04696 0.517381 2.0713 0.774772C2.09565 1.03216 2.11478 1.31216 2.1287 1.61477C2.14609 1.91738 2.15826 2.2339 2.16522 2.56434C2.17217 2.89129 2.17565 3.21129 2.17565 3.52434C2.17913 3.83042 2.18087 4.12434 2.18087 4.40608C2.18087 4.68782 2.18087 4.93825 2.18087 5.15738C2.18087 5.37651 2.17913 5.55738 2.17565 5.69999C2.17565 5.8426 2.17565 5.92782 2.17565 5.95564V6.04955C2.17217 6.2026 2.17739 6.33825 2.1913 6.45651C2.20522 6.57129 2.25217 6.66695 2.33217 6.74347C2.4887 6.90695 2.78435 6.99042 3.21913 6.9939H3.26609C3.33565 6.9939 3.40174 7.00782 3.46435 7.03564C3.52696 7.06347 3.58087 7.10173 3.62609 7.15042C3.67478 7.19564 3.71304 7.24955 3.74087 7.31216C3.7687 7.37477 3.78261 7.44086 3.78261 7.51042C3.78261 7.65651 3.73217 7.77825 3.6313 7.87564C3.53043 7.97303 3.4087 8.02173 3.26609 8.02173ZM2.7152 7.50521C2.7152 7.43564 2.72912 7.37129 2.75694 7.31216C2.78477 7.24955 2.82303 7.19564 2.87173 7.15042C2.92042 7.10173 2.97781 7.06521 3.0439 7.04086C3.10651 7.01303 3.17433 6.99912 3.24738 6.99912H3.29433C3.50303 6.99912 3.68564 6.99738 3.84216 6.9939C4.00216 6.99042 4.14651 6.98521 4.2752 6.97825C4.4039 6.97129 4.52042 6.9626 4.62477 6.95216C4.7326 6.94173 4.83694 6.92955 4.93781 6.91564C4.67694 6.6339 4.48042 6.35738 4.34825 6.08608C4.21955 5.81129 4.1552 5.54695 4.1552 5.29303C4.1552 5.11912 4.17781 4.93651 4.22303 4.74521C4.27173 4.55042 4.34477 4.36434 4.44216 4.18695C4.54303 4.00608 4.66825 3.83912 4.81781 3.68608C4.96738 3.52955 5.14651 3.40086 5.3552 3.29999L4.94303 3.13825L5.43868 2.19912L7.25433 2.94521C7.57781 3.08782 7.88912 3.23042 8.18825 3.37303C8.49086 3.51564 8.76912 3.65825 9.02303 3.80086C9.28042 3.94347 9.50651 4.08782 9.70129 4.2339C9.89607 4.37999 10.0474 4.52608 10.1552 4.67216C10.4752 5.1139 10.6352 5.56608 10.6352 6.02869C10.6352 6.36955 10.5448 6.68955 10.3639 6.98869C10.183 7.28434 9.90999 7.52955 9.54477 7.72434L9.54999 7.71912C9.4526 7.77825 9.33781 7.82869 9.20564 7.87042C9.07346 7.90869 8.93433 7.93999 8.78825 7.96434C8.64564 7.98869 8.50129 8.00782 8.3552 8.02173C8.20912 8.03216 8.0752 8.03738 7.95346 8.03738C7.64738 8.03738 7.34999 8.01477 7.06129 7.96955C6.77607 7.92434 6.48564 7.8426 6.18999 7.72434C6.00564 7.77999 5.79694 7.82695 5.5639 7.86521C5.33433 7.90347 5.0926 7.93477 4.83868 7.95912C4.58477 7.97999 4.32564 7.99564 4.06129 8.00608C3.79694 8.01651 3.54129 8.02173 3.29433 8.02173H3.24738C3.17433 8.02173 3.10651 8.00955 3.0439 7.98521C2.97781 7.95738 2.92042 7.92086 2.87173 7.87564C2.82303 7.82695 2.78477 7.77129 2.75694 7.70869C2.72912 7.64608 2.7152 7.57825 2.7152 7.50521ZM8.24564 5.0426C8.24564 5.18868 8.22477 5.34695 8.18303 5.51738C8.14129 5.68782 8.08216 5.85999 8.00564 6.0339C7.9326 6.20434 7.84216 6.37303 7.73433 6.53999C7.62651 6.70695 7.50651 6.85999 7.37433 6.99912C7.48564 7.01651 7.57781 7.02695 7.65086 7.03042C7.7239 7.0339 7.79173 7.03564 7.85433 7.03564H8.10477C8.36912 7.03564 8.59868 7.00782 8.79346 6.95216C8.99173 6.89303 9.15346 6.81477 9.27868 6.71738C9.40738 6.61999 9.50303 6.50695 9.56564 6.37825C9.62825 6.24608 9.65955 6.10869 9.65955 5.96608C9.65955 5.84434 9.62825 5.71216 9.56564 5.56955C9.50303 5.42695 9.40912 5.28434 9.2839 5.14173C9.16216 4.99564 9.00912 4.85303 8.82477 4.7139C8.64042 4.57477 8.42477 4.44782 8.17781 4.33303C8.21607 4.46521 8.23694 4.59042 8.24042 4.70869C8.2439 4.82695 8.24564 4.93825 8.24564 5.0426ZM7.17607 5.00086C7.17607 4.89651 7.16738 4.78695 7.14999 4.67216C7.13607 4.5539 7.10303 4.4426 7.05086 4.33825C7.00216 4.23042 6.93086 4.13651 6.83694 4.05651C6.74651 3.97303 6.62651 3.91564 6.47694 3.88434C6.28564 3.84608 6.10999 3.86521 5.94999 3.94173C5.78999 4.01477 5.65086 4.11912 5.5326 4.25477C5.41781 4.39042 5.32738 4.54347 5.26129 4.7139C5.1952 4.88434 5.16216 5.04782 5.16216 5.20434C5.16216 5.35042 5.18825 5.48955 5.24042 5.62173C5.2926 5.7539 5.36216 5.87912 5.44912 5.99738C5.53955 6.11216 5.6439 6.22173 5.76216 6.32608C5.88042 6.42695 6.00564 6.52086 6.13781 6.60782C6.3152 6.52782 6.46825 6.42695 6.59694 6.30521C6.72912 6.18347 6.83694 6.05129 6.92042 5.90868C7.00738 5.7626 7.07173 5.61129 7.11346 5.45477C7.1552 5.29825 7.17607 5.14695 7.17607 5.00086ZM15.3255 11.8356L15.1325 6.99912C15.1325 6.97825 15.1325 6.92955 15.1325 6.85303C15.1359 6.77651 15.1498 6.68955 15.1742 6.59216C15.1985 6.49129 15.2403 6.38868 15.2994 6.28434C15.3585 6.17651 15.4438 6.08086 15.5551 5.99738C15.6003 5.9626 15.6542 5.92955 15.7168 5.89825C15.7829 5.86347 15.8577 5.83912 15.9411 5.82521C16.0246 5.80782 16.1168 5.80086 16.2177 5.80434C16.322 5.80782 16.4368 5.82695 16.562 5.86173C16.6003 5.74347 16.6472 5.61825 16.7029 5.48608C16.7585 5.3539 16.8229 5.21651 16.8959 5.0739C17.0038 4.87216 17.1116 4.69477 17.2194 4.54173C17.3307 4.38521 17.442 4.24955 17.5533 4.13477C17.9081 3.78695 18.2907 3.61999 18.7011 3.6339C18.9829 3.64434 19.2385 3.70695 19.4681 3.82173C19.6977 3.93303 19.8959 4.09825 20.0629 4.31738C20.1916 4.48782 20.2925 4.68434 20.3655 4.90695C20.4385 5.12955 20.4838 5.36086 20.5011 5.60086C20.522 5.83738 20.5151 6.0739 20.4803 6.31042C20.449 6.54695 20.3916 6.76434 20.3081 6.9626C20.2072 7.21651 20.0768 7.41999 19.9168 7.57303C19.7568 7.72608 19.5759 7.81999 19.3742 7.85477C19.2768 7.86869 19.169 7.86695 19.0507 7.84955C18.9325 7.83216 18.7968 7.80086 18.6438 7.75564C18.4907 7.70695 18.3168 7.64608 18.122 7.57303C17.9307 7.49651 17.7098 7.40782 17.4594 7.30695C17.2646 7.22347 17.0698 7.14347 16.8751 7.06695C16.6838 6.99042 16.5011 6.92434 16.3272 6.86869C16.2959 6.85825 16.2664 6.84955 16.2385 6.8426C16.2142 6.83564 16.1933 6.83216 16.1759 6.83216C16.1655 6.88434 16.1603 6.92608 16.1603 6.95738L16.3481 11.8356H15.3255ZM17.8559 6.35216C18.0159 6.42173 18.1707 6.48608 18.3203 6.54521C18.4733 6.60086 18.6159 6.65303 18.7481 6.70173C18.8803 6.75042 19.0003 6.78868 19.1081 6.81651C19.2194 6.84434 19.2872 6.85999 19.3116 6.86347C19.3638 6.77999 19.4055 6.67564 19.4368 6.55042C19.4716 6.42521 19.4942 6.29477 19.5046 6.15912C19.5185 6.02347 19.522 5.88955 19.5151 5.75738C19.5081 5.62173 19.489 5.50347 19.4577 5.4026C19.4055 5.22521 19.3411 5.08782 19.2646 4.99042C19.1916 4.88955 19.1168 4.81477 19.0403 4.76608C18.9638 4.71738 18.8907 4.68782 18.8211 4.67738C18.7551 4.66695 18.7029 4.66173 18.6646 4.66173C18.5429 4.65825 18.4072 4.73477 18.2577 4.89129C18.1081 5.04782 17.962 5.26695 17.8194 5.54868C17.7568 5.66347 17.7011 5.77999 17.6525 5.89825C17.6072 6.01303 17.5655 6.11912 17.5272 6.21651L17.8559 6.35216ZM24.313 8.02173C23.9304 8.02173 23.6017 7.97651 23.3269 7.88608C23.0556 7.79564 22.826 7.65651 22.6382 7.46869C22.5234 7.3539 22.4347 7.23042 22.3721 7.09825C22.313 6.96608 22.2677 6.83564 22.2364 6.70695C22.2086 6.57825 22.193 6.45651 22.1895 6.34173C22.186 6.22347 22.1843 6.1226 22.1843 6.03912V5.93999C22.1843 5.93651 22.186 5.8739 22.1895 5.75216C22.193 5.62695 22.1947 5.45999 22.1947 5.25129C22.1982 5.03912 22.1999 4.79564 22.1999 4.52086C22.1999 4.24608 22.1982 3.95564 22.1947 3.64955C22.1947 3.35042 22.1912 3.03912 22.1843 2.71564C22.1773 2.39216 22.1669 2.07912 22.153 1.77651C22.139 1.4739 22.1199 1.19564 22.0956 0.941728C22.0712 0.684337 22.0434 0.473902 22.0121 0.310424L23.0347 0.122598C23.066 0.299989 23.0938 0.517381 23.1182 0.774772C23.1425 1.03216 23.1617 1.31216 23.1756 1.61477C23.193 1.91738 23.2051 2.2339 23.2121 2.56434C23.219 2.89129 23.2225 3.21129 23.2225 3.52434C23.226 3.83042 23.2277 4.12434 23.2277 4.40608C23.2277 4.68782 23.2277 4.93825 23.2277 5.15738C23.2277 5.37651 23.226 5.55738 23.2225 5.69999C23.2225 5.8426 23.2225 5.92782 23.2225 5.95564V6.04955C23.219 6.2026 23.2243 6.33825 23.2382 6.45651C23.2521 6.57129 23.299 6.66695 23.379 6.74347C23.5356 6.90695 23.8312 6.99042 24.266 6.9939H24.313C24.3825 6.9939 24.4486 7.00782 24.5112 7.03564C24.5738 7.06347 24.6277 7.10173 24.673 7.15042C24.7217 7.19564 24.7599 7.24955 24.7877 7.31216C24.8156 7.37477 24.8295 7.44086 24.8295 7.51042C24.8295 7.65651 24.779 7.77825 24.6782 7.87564C24.5773 7.97303 24.4556 8.02173 24.313 8.02173ZM23.7569 7.51042C23.7569 7.36434 23.8056 7.2426 23.9029 7.14521C24.0003 7.04434 24.1221 6.9939 24.2682 6.9939H24.6647C24.9569 6.9939 25.2369 6.97651 25.5047 6.94173C25.7725 6.90695 26.0073 6.8426 26.209 6.74868C26.4143 6.65477 26.576 6.52782 26.6943 6.36782C26.8125 6.20434 26.8664 5.99564 26.856 5.74173C26.849 5.54695 26.8316 5.34521 26.8038 5.13651C26.7795 4.92782 26.729 4.68955 26.6525 4.42173L27.6282 4.14521C27.6595 4.26695 27.689 4.39564 27.7169 4.53129C27.7447 4.66347 27.769 4.79912 27.7899 4.93825C27.8108 5.07738 27.8282 5.21825 27.8421 5.36086C27.8595 5.49999 27.8716 5.63738 27.8786 5.77303C27.8856 5.90173 27.9012 6.03738 27.9256 6.17999C27.9499 6.3226 27.9934 6.45477 28.056 6.57651C28.1186 6.69825 28.2038 6.79912 28.3116 6.87912C28.4229 6.95912 28.5673 6.99912 28.7447 6.99912C28.8908 6.99912 29.0143 7.04782 29.1151 7.14521C29.216 7.2426 29.2664 7.36434 29.2664 7.51042C29.2664 7.58347 29.2525 7.65129 29.2247 7.7139C29.1969 7.77303 29.1586 7.82695 29.1099 7.87564C29.0647 7.92086 29.0108 7.95738 28.9482 7.98521C28.889 8.00955 28.8247 8.02173 28.7551 8.02173C28.4038 8.02173 28.1134 7.95912 27.8838 7.8339C27.6543 7.70521 27.4664 7.54521 27.3203 7.3539C27.1951 7.47564 27.0334 7.57999 26.8351 7.66695C26.6369 7.75042 26.4177 7.81825 26.1777 7.87042C25.9412 7.9226 25.6925 7.96086 25.4316 7.98521C25.1708 8.00955 24.9151 8.02173 24.6647 8.02173H24.2682C24.1221 8.02173 24.0003 7.97303 23.9029 7.87564C23.8056 7.77825 23.7569 7.65651 23.7569 7.51042ZM25.9273 10.0043L25.0821 10.8496L24.2264 9.99912L25.0716 9.14869L25.9273 10.0043ZM28.0664 10.0096L27.2212 10.86L26.3656 10.0043L27.2108 9.15912L28.0664 10.0096ZM28.2817 7.51042C28.2817 7.36434 28.3321 7.2426 28.433 7.14521C28.5304 7.04782 28.6504 6.99912 28.793 6.99912H29.3721C29.4938 7.0026 29.626 7.00434 29.7686 7.00434C29.9112 7.00086 30.0556 6.99216 30.2017 6.97825C30.3478 6.96434 30.4904 6.94521 30.6295 6.92086C30.7721 6.89303 30.9025 6.85651 31.0208 6.81129C31.1391 6.7626 31.2434 6.70347 31.3338 6.6339C31.4243 6.56434 31.4921 6.48086 31.5373 6.38347C31.6069 6.2339 31.626 6.02173 31.5947 5.74695C31.5669 5.46868 31.4973 5.14521 31.386 4.77651C31.3478 4.66521 31.3025 4.54521 31.2504 4.41651C31.2017 4.28434 31.153 4.1626 31.1043 4.05129C31.0486 3.91912 30.9912 3.78868 30.9321 3.65999L31.8608 3.20086C31.8608 3.20434 31.8764 3.24086 31.9078 3.31042C31.9425 3.37651 31.9843 3.46695 32.033 3.58173C32.0817 3.69651 32.1356 3.83042 32.1947 3.98347C32.2538 4.13303 32.3095 4.29303 32.3617 4.46347C32.6851 5.46173 32.7251 6.24086 32.4817 6.80086C32.2347 7.36086 31.7964 7.72955 31.1669 7.90695C31.073 7.93477 30.953 7.95738 30.8069 7.97477C30.6608 7.98869 30.5112 7.99912 30.3582 8.00608C30.2051 8.01303 30.0591 8.01825 29.9199 8.02173C29.7808 8.02173 29.673 8.02173 29.5964 8.02173H28.8399H28.793C28.6504 8.02173 28.5304 7.97303 28.433 7.87564C28.3321 7.77825 28.2817 7.65651 28.2817 7.51042ZM31.8817 8.99216L32.7269 9.83738L31.8712 10.693L31.026 9.84782L31.8817 8.99216ZM29.6017 8.99738L30.4469 9.84782L29.5912 10.7035L28.746 9.85303L29.6017 8.99738ZM30.7599 10.6461L31.5321 11.4183L30.7547 12.1956L29.9825 11.4235L30.7599 10.6461Z" fill="#777777"/>
</svg>
